<svg width="16" height="16" viewBox="0 0 16 16" fill="none" xmlns="http://www.w3.org/2000/svg">
<path fill-rule="evenodd" clip-rule="evenodd" d="M7.21437 0.0215428C3.3726 0.437325 0.413082 3.42397 0.0352469 7.26639C-0.136723 9.01516 0.326062 10.8752 1.30365 12.3646C1.6527 12.8964 1.90793 13.2105 2.35204 13.6548C2.79618 14.0991 3.11012 14.3544 3.64174 14.7035C6.78948 16.7711 11.0163 16.3268 13.6763 13.6487C14.89 12.4269 15.6628 10.8819 15.9362 9.13118C16.0214 8.5856 16.0213 7.40828 15.936 6.857C15.7711 5.79104 15.415 4.78493 14.8951 3.91648C13.6456 1.82911 11.5819 0.440364 9.1819 0.0718193C8.75056 0.00558975 7.627 -0.0231397 7.21437 0.0215428ZM8.68139 1.12545C9.54182 1.22093 10.2914 1.43502 11.0281 1.79562C11.7548 2.15135 12.2293 2.48575 12.818 3.05709C13.4171 3.63837 13.8315 4.21058 14.2073 4.97509C15.1415 6.87561 15.1414 9.1116 14.2071 11.0179C13.517 12.426 12.4362 13.5072 11.0286 14.1975C9.12187 15.1327 6.88889 15.1328 4.98794 14.1977C4.25754 13.8385 3.78578 13.5058 3.19852 12.9359C2.33305 12.096 1.71262 11.0672 1.38256 9.92448C0.909385 8.28643 1.05688 6.52782 1.79574 4.99739C2.16091 4.24093 2.59594 3.64079 3.21509 3.03923C4.30877 1.97663 5.66633 1.32935 7.19711 1.14068C7.63103 1.08722 8.27707 1.08056 8.68139 1.12545ZM10.9941 5.40337C10.9371 5.43938 10.0285 6.33279 8.97489 7.38877C7.9213 8.44471 7.04402 9.30867 7.02541 9.30867C7.00677 9.30867 6.54851 8.86709 6.00702 8.32741C5.15491 7.47813 5.00272 7.34094 4.87576 7.30742C4.61366 7.23825 4.36596 7.34654 4.24536 7.58304C4.16907 7.73259 4.15858 7.87399 4.21291 8.02016C4.23276 8.07361 4.81138 8.68097 5.49871 9.36982C6.83708 10.7112 6.8493 10.7209 7.13722 10.6701C7.2512 10.65 7.5214 10.3928 9.46919 8.45003C10.7862 7.13645 11.7005 6.19819 11.7426 6.11715C11.9226 5.77005 11.6528 5.33745 11.2565 5.33779C11.1602 5.33786 11.0569 5.36369 10.9941 5.40337Z" fill="white"/>
</svg>
