<?xml version="1.0" encoding="UTF-8"?>
<svg xmlns="http://www.w3.org/2000/svg" xmlns:xlink="http://www.w3.org/1999/xlink" width="20px" height="20px" viewBox="0 0 20 20" version="1.1">
<g id="surface1">
<path style="fill:none;stroke-width:2;stroke-linecap:round;stroke-linejoin:round;stroke:rgb(70.196078%,70.196078%,70.196078%);stroke-opacity:1;stroke-miterlimit:4;" d="M 17.939062 17.939062 C 16.232812 19.242188 14.146875 19.964063 12 20.001562 C 5.001562 20.001562 0.998437 12 0.998437 12 C 2.245312 9.679688 3.970312 7.654687 6.060937 6.060937 M 9.9 4.242188 C 10.589062 4.078125 11.292187 3.998437 12 3.998437 C 18.998437 3.998437 23.001562 12 23.001562 12 C 22.392187 13.134375 21.670312 14.203125 20.840625 15.192187 M 14.11875 14.11875 C 13.373437 14.920312 12.24375 15.253125 11.184375 14.98125 C 10.120312 14.709375 9.290625 13.879687 9.01875 12.815625 C 8.746875 11.75625 9.079688 10.626563 9.88125 9.88125 " transform="matrix(0.833333,0,0,0.833333,0,0)"/>
<path style="fill:none;stroke-width:2;stroke-linecap:round;stroke-linejoin:round;stroke:rgb(70.196078%,70.196078%,70.196078%);stroke-opacity:1;stroke-miterlimit:4;" d="M 0.998437 0.998437 L 23.001562 23.001562 " transform="matrix(0.833333,0,0,0.833333,0,0)"/>
</g>
</svg>
