<?xml version="1.0" ?><svg enable-background="new 0 0 52 52" id="Layer_1" version="1.1" viewBox="0 0 52 52" xml:space="preserve" xmlns="http://www.w3.org/2000/svg" xmlns:xlink="http://www.w3.org/1999/xlink"><g><path d="M38.1466675,19.9997559v-9.730957c0-4.5595703-3.7089844-8.2685547-8.2675781-8.2685547h-7.7529297   c-4.5595703,0-8.2685547,3.7089844-8.2685547,8.2685547v9.730957H10v30h32v-30H38.1466675z M15.857605,10.2687988   c0-3.4560547,2.8125-6.2685547,6.2685547-6.2685547h7.7529297c3.4560547,0,6.2675781,2.8125,6.2675781,6.2685547v9.730957   H15.857605V10.2687988z M29,36.9797363v5.0200195h-6v-5.0200195c-1.2399902-0.9400024-2-2.4199829-2-3.9799805   c0-2.7600098,2.25-5,5-5c2.7600098,0,5,2.2399902,5,5C31,34.5597534,30.25,36.0397339,29,36.9797363z" fill="#F93E2B"/></g></svg>