<svg width="20" height="16" viewBox="0 0 20 16" fill="none" xmlns="http://www.w3.org/2000/svg">
<path fill-rule="evenodd" clip-rule="evenodd" d="M0.414673 1.65224C0.119884 1.78109 -0.0500559 2.12225 0.0131259 2.45847C0.0522023 2.66646 0.274675 2.91228 0.47674 2.97069C0.5884 3.00299 2.26147 3.01367 5.7939 3.0046C10.9198 2.99152 10.9488 2.99094 11.0711 2.89969C11.305 2.72537 11.3779 2.58318 11.3779 2.30181C11.3779 2.02045 11.305 1.87826 11.0711 1.70394C10.9487 1.61264 10.923 1.61215 5.74934 1.60254C1.49531 1.59463 0.525887 1.60366 0.414673 1.65224ZM18.9447 5.19125C18.8669 5.23863 17.4652 6.9103 15.8299 8.90609C14.1946 10.9019 12.8429 12.5348 12.8261 12.5348C12.8094 12.5348 12.1196 11.7245 11.2934 10.7342C10.4672 9.74386 9.74012 8.89345 9.67774 8.84447C9.17679 8.45099 8.40449 8.98729 8.58855 9.60082C8.66403 9.85228 12.3091 14.226 12.5307 14.331C12.726 14.4235 12.9272 14.423 13.1247 14.3294C13.2419 14.2739 14.102 13.2535 16.5681 10.2443C18.3761 8.03824 19.89 6.16623 19.9324 6.08428C20.2269 5.51577 19.4965 4.85534 18.9447 5.19125ZM0.414673 5.21154C0.119884 5.34039 -0.0500559 5.68154 0.0131259 6.01776C0.0522023 6.22576 0.274675 6.47157 0.47674 6.52999C0.5884 6.56229 2.26147 6.57297 5.7939 6.56389C10.9198 6.55081 10.9488 6.55024 11.0711 6.45898C11.305 6.28467 11.3779 6.14247 11.3779 5.86111C11.3779 5.57975 11.305 5.43755 11.0711 5.26324C10.9487 5.17194 10.923 5.17145 5.74934 5.16184C1.49531 5.15392 0.525887 5.16295 0.414673 5.21154ZM0.414673 8.77061C0.119661 8.90008 -0.0500113 9.24093 0.0131259 9.57706C0.0522023 9.78497 0.274586 10.0308 0.47674 10.0896C0.586261 10.1214 1.51149 10.1325 3.29871 10.1235C5.90413 10.1103 5.96023 10.1082 6.0808 10.0183C6.31459 9.84396 6.38753 9.70177 6.38753 9.42041C6.38753 9.13905 6.31459 8.99685 6.0808 8.82254C5.96005 8.73249 5.90738 8.73062 3.25415 8.72087C1.07456 8.71286 0.524238 8.72252 0.414673 8.77061Z" fill="#4AA356"/>
</svg>
