<svg width="18" height="18" viewBox="0 0 18 18" fill="none" xmlns="http://www.w3.org/2000/svg">
<path d="M12.2656 1.95312H12.4375C12.343 1.95312 12.2656 1.87578 12.2656 1.78125V1.95312H5.73438V1.78125C5.73438 1.87578 5.65703 1.95312 5.5625 1.95312H5.73438V3.5H4.1875V1.78125C4.1875 1.02285 4.8041 0.40625 5.5625 0.40625H12.4375C13.1959 0.40625 13.8125 1.02285 13.8125 1.78125V3.5H12.2656V1.95312ZM1.4375 3.5H16.5625C16.9428 3.5 17.25 3.80723 17.25 4.1875V4.875C17.25 4.96953 17.1727 5.04688 17.0781 5.04688H15.7805L15.2498 16.2832C15.2154 17.0158 14.6096 17.5938 13.877 17.5938H4.12305C3.38828 17.5938 2.78457 17.018 2.75019 16.2832L2.21953 5.04688H0.921875C0.827343 5.04688 0.75 4.96953 0.75 4.875V4.1875C0.75 3.80723 1.05723 3.5 1.4375 3.5ZM4.28848 16.0469H13.7115L14.2314 5.04688H3.76855L4.28848 16.0469Z" fill="#4AA356"/>
</svg>
