<svg width="18" height="20" viewBox="0 0 18 20" fill="none" xmlns="http://www.w3.org/2000/svg">
<path fill-rule="evenodd" clip-rule="evenodd" d="M8.18064 0.0299135C7.39793 0.0965687 6.38374 0.369976 5.65185 0.711645C4.29047 1.34721 3.29515 2.26315 2.66642 3.45897C2.18328 4.37804 2.07005 4.9845 2.06967 6.6561L2.06939 7.8442L1.81253 7.89335C0.999668 8.04898 0.296992 8.69598 0.0805931 9.48794C-0.0257097 9.87698 -0.0273957 17.9733 0.0787667 18.3618C0.290295 19.136 0.912425 19.7311 1.72014 19.9316C1.96136 19.9916 2.86137 20 9.00015 20C15.1389 20 16.0389 19.9916 16.2802 19.9316C17.0879 19.7311 17.71 19.136 17.9215 18.3618C18.0262 17.979 18.0262 9.87756 17.9215 9.49468C17.71 8.72049 17.0879 8.12546 16.2802 7.92487C16.0396 7.86514 15.2187 7.85652 9.7823 7.85652H3.55969L3.57964 6.506C3.60147 5.02834 3.62497 4.87851 3.9384 4.21955C4.75431 2.50406 6.93577 1.34409 9.16406 1.44083C10.6264 1.50436 11.8932 2.00801 12.875 2.91618C13.7251 3.7026 14.1417 4.52809 14.2379 5.61627C14.2812 6.10639 14.3313 6.218 14.5909 6.40278C14.7722 6.53185 15.2164 6.53185 15.3978 6.40278C15.741 6.15844 15.8054 5.85383 15.68 5.0662C15.4915 3.88078 14.918 2.82126 13.9896 1.94251C12.5104 0.542797 10.3834 -0.157551 8.18064 0.0299135ZM16.147 9.39954C16.2182 9.45017 16.3198 9.54705 16.3729 9.61487C16.4688 9.73733 16.4695 9.76595 16.4695 13.9283C16.4695 18.0906 16.4688 18.1192 16.3729 18.2416C16.3198 18.3095 16.2182 18.4063 16.147 18.457C16.0177 18.549 16.0148 18.549 9.00015 18.549C1.98552 18.549 1.98257 18.549 1.85328 18.457C1.78214 18.4063 1.68052 18.3095 1.62742 18.2416C1.53179 18.1195 1.53071 18.0793 1.51727 14.0478C1.50983 11.809 1.51596 9.91247 1.53085 9.83336C1.56462 9.65438 1.76144 9.42633 1.94998 9.34771C2.06724 9.29883 3.33838 9.2899 9.05527 9.29784C16.0064 9.30749 16.0179 9.30762 16.147 9.39954ZM7.94415 12.2053C7.75233 12.2849 7.55902 12.5122 7.52165 12.7018C7.44766 13.0779 7.67628 13.4431 8.0446 13.537L8.24667 13.5886L8.26048 14.7821C8.2735 15.9068 8.27987 15.9827 8.37086 16.0988C8.55443 16.333 8.70405 16.4061 9.00015 16.4061C9.29626 16.4061 9.44587 16.333 9.62945 16.0988C9.72044 15.9827 9.72681 15.9068 9.73982 14.7821L9.75364 13.5886L9.95571 13.537C10.6155 13.3688 10.6773 12.4549 10.0458 12.2034C9.8332 12.1187 8.14903 12.1202 7.94415 12.2053Z" fill="#B3B3B3"/>
</svg>
